<?xml version="1.0" encoding="UTF-8" standalone="no"?>
<svg
   xmlns:osb="http://www.openswatchbook.org/uri/2009/osb"
   xmlns:dc="http://purl.org/dc/elements/1.1/"
   xmlns:cc="http://creativecommons.org/ns#"
   xmlns:rdf="http://www.w3.org/1999/02/22-rdf-syntax-ns#"
   xmlns:svg="http://www.w3.org/2000/svg"
   xmlns="http://www.w3.org/2000/svg"
   xmlns:sodipodi="http://sodipodi.sourceforge.net/DTD/sodipodi-0.dtd"
   xmlns:inkscape="http://www.inkscape.org/namespaces/inkscape"
   width="290mm"
   height="220mm"
   viewBox="0 0 290 220"
   version="1.1"
   id="svg8"
   sodipodi:docname="peoplecounter-svg2.svg"
   inkscape:version="1.0.1 (3bc2e813f5, 2020-09-07)">
  <defs
     id="defs2">
    <linearGradient
       id="linearGradient1784"
       osb:paint="solid">
      <stop
         style="stop-color:#c0c0c0;stop-opacity:1;"
         offset="0"
         id="stop1782" />
    </linearGradient>
    <inkscape:perspective
       sodipodi:type="inkscape:persp3d"
       inkscape:vp_x="-251.95479 : -3.0854541e-14 : 0"
       inkscape:vp_y="2.8325006e-14 : -462.59765 : 0"
       inkscape:vp_z="-155.72323 : -185.20699 : 0"
       inkscape:persp3d-origin="179.97527 : -616.78806 : 1"
       id="perspective833" />
  </defs>
  <sodipodi:namedview
     id="base"
     pagecolor="#ffffff"
     bordercolor="#666666"
     borderopacity="1.0"
     inkscape:pageopacity="0.0"
     inkscape:pageshadow="2"
     inkscape:zoom="0.35"
     inkscape:cx="1187.6408"
     inkscape:cy="539.10135"
     inkscape:document-units="mm"
     inkscape:current-layer="layer1"
     inkscape:document-rotation="0"
     showgrid="false"
     inkscape:window-width="1920"
     inkscape:window-height="1017"
     inkscape:window-x="1072"
     inkscape:window-y="346"
     inkscape:window-maximized="1"
     inkscape:snap-global="false" />
  <metadata
     id="metadata5">
    <rdf:RDF>
      <cc:Work
         rdf:about="">
        <dc:format>image/svg+xml</dc:format>
        <dc:type
           rdf:resource="http://purl.org/dc/dcmitype/StillImage" />
        <dc:title></dc:title>
      </cc:Work>
    </rdf:RDF>
  </metadata>
  <g
     inkscape:label="Layer 1"
     inkscape:groupmode="layer"
     id="layer1">
    <g
       id="g1742"
       style="fill:#ffccaa;fill-opacity:1;stroke:#000000;stroke-opacity:1"
       transform="matrix(1.4317169,0,0,1.3869411,-284.84084,-240.34662)">
      <path
         d="M 240.85846,284.36234 H 394.94504 V 208.10785 H 240.85846 Z"
         style="fill:#ffccaa;fill-opacity:1;fill-rule:evenodd;stroke:#000000;stroke-width:0.723672;stroke-linejoin:round;stroke-miterlimit:4;stroke-dasharray:none;stroke-opacity:1"
         id="path943" />
      <path
         d="m 240.85846,284.36234 v -76.25449 l -35.90581,40.40337 v 76.2545 z"
         style="fill:#ffccaa;fill-opacity:1;fill-rule:evenodd;stroke:#000000;stroke-width:0.723672;stroke-linejoin:round;stroke-miterlimit:4;stroke-dasharray:none;stroke-opacity:1"
         id="path945" />
      <path
         d="m 240.85846,284.36234 h 154.08658 l -35.90581,40.40338 H 204.95265 Z"
         style="fill:#ffccaa;fill-opacity:1;fill-rule:evenodd;stroke:#000000;stroke-width:0.723672;stroke-linejoin:round;stroke-miterlimit:4;stroke-dasharray:none;stroke-opacity:1"
         id="path947" />
      <path
         d="m 240.85846,208.10785 h 154.08658 l -35.90581,40.40337 H 204.95265 Z"
         style="fill:#ffccaa;fill-opacity:1;fill-rule:evenodd;stroke:#000000;stroke-width:1.41929;stroke-linejoin:round;stroke-miterlimit:4;stroke-dasharray:none;stroke-opacity:1"
         id="path949" />
      <path
         d="m 394.94504,284.36234 v -76.25449 l -35.90581,40.40337 v 76.2545 z"
         style="fill:#ffccaa;fill-opacity:1;fill-rule:evenodd;stroke:#000000;stroke-width:1.41929;stroke-linejoin:round;stroke-miterlimit:4;stroke-dasharray:none;stroke-opacity:1"
         id="path951" />
      <path
         d="m 204.95265,324.76572 h 154.08658 v -76.2545 H 204.95265 Z"
         style="fill:#ffccaa;fill-opacity:1;fill-rule:evenodd;stroke:#000000;stroke-width:1.41929;stroke-linejoin:round;stroke-miterlimit:4;stroke-dasharray:none;stroke-opacity:1"
         id="path953" />
    </g>
    <rect
       style="fill:#000000;fill-opacity:1;stroke:#000000;stroke-width:0.614157;stroke-miterlimit:4;stroke-dasharray:none;stroke-opacity:1"
       id="rect1768"
       width="97.341949"
       height="30.524569"
       x="70.199692"
       y="122.23951" />
    <path
       style="fill:#000000;fill-opacity:1;fill-rule:evenodd;stroke:#c0c0c0;stroke-width:4;stroke-linejoin:round;stroke-miterlimit:4;stroke-dasharray:none;stroke-dashoffset:20;stroke-opacity:1"
       id="path1770"
       sodipodi:type="arc"
       sodipodi:cx="89.471024"
       sodipodi:cy="177.05771"
       sodipodi:rx="17.639788"
       sodipodi:ry="16.83798"
       sodipodi:start="0"
       sodipodi:end="6.0782837"
       sodipodi:open="true"
       sodipodi:arc-type="arc"
       d="M 107.11081,177.05771 A 17.639788,16.83798 0 0 1 90.374234,193.8736 17.639788,16.83798 0 0 1 71.92373,178.77976 17.639788,16.83798 0 0 1 86.770865,160.41816 17.639788,16.83798 0 0 1 106.7418,173.63167" />
    <path
       style="fill:#000000;fill-opacity:1;fill-rule:evenodd;stroke:#c0c0c0;stroke-width:4;stroke-linejoin:round;stroke-miterlimit:4;stroke-dasharray:none;stroke-dashoffset:20;stroke-opacity:1"
       id="path1770-9"
       sodipodi:type="arc"
       sodipodi:cx="147.73625"
       sodipodi:cy="177.32568"
       sodipodi:rx="17.639788"
       sodipodi:ry="16.83798"
       sodipodi:start="0"
       sodipodi:end="6.0782837"
       sodipodi:open="true"
       sodipodi:arc-type="arc"
       d="m 165.37604,177.32568 a 17.639788,16.83798 0 0 1 -16.73658,16.8159 17.639788,16.83798 0 0 1 -18.4505,-15.09385 17.639788,16.83798 0 0 1 14.84713,-18.36159 17.639788,16.83798 0 0 1 19.97094,13.21351" />
    <path
       d="m 266.47428,159.63471 v -23.93304 l -9.97352,12.68089 v 23.93302 z"
       style="fill:#c0c0c0;fill-opacity:1;fill-rule:evenodd;stroke:#000000;stroke-width:1;stroke-linejoin:round;stroke-miterlimit:4;stroke-dasharray:none;stroke-opacity:1"
       id="path951-4" />
    <path
       style="fill:#000000;fill-opacity:1;fill-rule:evenodd;stroke:none;stroke-width:0.418326"
       id="path1716"
       sodipodi:type="arc"
       sodipodi:cx="261.61475"
       sodipodi:cy="154.47961"
       sodipodi:rx="2.5484951"
       sodipodi:ry="7.2871103"
       sodipodi:start="0"
       sodipodi:end="6.0782837"
       sodipodi:open="true"
       sodipodi:arc-type="arc"
       d="m 264.16324,154.47961 a 2.5484951,7.2871103 0 0 1 -2.418,7.27756 2.5484951,7.2871103 0 0 1 -2.66563,-6.53229 2.5484951,7.2871103 0 0 1 2.14503,-7.9465 2.5484951,7.2871103 0 0 1 2.88529,5.71852" />
    <path
       d="m 244.75102,182.22523 v -23.93302 l -9.97352,12.68087 v 23.93302 z"
       style="fill:#c0c0c0;fill-opacity:1;fill-rule:evenodd;stroke:#000000;stroke-width:1;stroke-linejoin:round;stroke-miterlimit:4;stroke-dasharray:none;stroke-opacity:1"
       id="path951-4-0" />
    <path
       style="fill:#000000;fill-opacity:1;fill-rule:evenodd;stroke:none;stroke-width:0.418326;stroke-opacity:1"
       id="path1716-0"
       sodipodi:type="arc"
       sodipodi:cx="239.8914"
       sodipodi:cy="177.07014"
       sodipodi:rx="2.5484951"
       sodipodi:ry="7.2871103"
       sodipodi:start="0"
       sodipodi:end="6.0782837"
       sodipodi:open="true"
       sodipodi:arc-type="arc"
       d="m 242.4399,177.07014 a 2.5484951,7.2871103 0 0 1 -2.41801,7.27756 2.5484951,7.2871103 0 0 1 -2.66562,-6.53229 2.5484951,7.2871103 0 0 1 2.14503,-7.9465 2.5484951,7.2871103 0 0 1 2.88529,5.71852" />
    <path
       id="rect1858"
       style="fill:#0000ff;fill-rule:evenodd;stroke:#000000;stroke-width:2;stroke-miterlimit:4;stroke-dasharray:none;stroke-opacity:1;paint-order:markers fill stroke"
       d="m 125.48156,7.4865728 c -12.73043,0 -22.97907,5.6477592 -22.97907,12.6631592 v 29.60341 c 0,1.92296 0.77463,3.74183 2.15471,5.37114 v 26.73014 c 0,1.06974 1.56245,1.93107 3.50364,1.93107 h 57.62107 c 1.94118,0 3.50364,-0.86133 3.50364,-1.93107 v -26.73014 c 1.38008,-1.62931 2.15471,-3.44818 2.15471,-5.37114 v -29.60341 c 0,-7.0154 -10.2492,-12.6631592 -22.97963,-12.6631592 z" />
  </g>
</svg>
