<?xml version="1.0" encoding="UTF-8" standalone="no"?>
<svg
   xmlns:osb="http://www.openswatchbook.org/uri/2009/osb"
   xmlns:dc="http://purl.org/dc/elements/1.1/"
   xmlns:cc="http://creativecommons.org/ns#"
   xmlns:rdf="http://www.w3.org/1999/02/22-rdf-syntax-ns#"
   xmlns:svg="http://www.w3.org/2000/svg"
   xmlns="http://www.w3.org/2000/svg"
   xmlns:sodipodi="http://sodipodi.sourceforge.net/DTD/sodipodi-0.dtd"
   xmlns:inkscape="http://www.inkscape.org/namespaces/inkscape"
   width="290mm"
   height="220mm"
   viewBox="0 0 290 220"
   version="1.1"
   id="svg8"
   sodipodi:docname="peoplecounter-svg.svg"
   inkscape:version="1.0.1 (3bc2e813f5, 2020-09-07)">
  <defs
     id="defs2">
    <linearGradient
       id="linearGradient1784"
       osb:paint="solid">
      <stop
         style="stop-color:#c0c0c0;stop-opacity:1;"
         offset="0"
         id="stop1782" />
    </linearGradient>
    <inkscape:perspective
       sodipodi:type="inkscape:persp3d"
       inkscape:vp_x="-251.95479 : -3.0854541e-14 : 0"
       inkscape:vp_y="2.8325006e-14 : -462.59765 : 0"
       inkscape:vp_z="-155.72323 : -185.20699 : 0"
       inkscape:persp3d-origin="179.97527 : -616.78806 : 1"
       id="perspective833" />
  </defs>
  <sodipodi:namedview
     id="base"
     pagecolor="#ffffff"
     bordercolor="#666666"
     borderopacity="1.0"
     inkscape:pageopacity="0.0"
     inkscape:pageshadow="2"
     inkscape:zoom="0.24748737"
     inkscape:cx="846.12857"
     inkscape:cy="947.3096"
     inkscape:document-units="mm"
     inkscape:current-layer="layer1"
     inkscape:document-rotation="0"
     showgrid="false"
     inkscape:window-width="1920"
     inkscape:window-height="1017"
     inkscape:window-x="1072"
     inkscape:window-y="346"
     inkscape:window-maximized="1"
     inkscape:snap-global="false" />
  <metadata
     id="metadata5">
    <rdf:RDF>
      <cc:Work
         rdf:about="">
        <dc:format>image/svg+xml</dc:format>
        <dc:type
           rdf:resource="http://purl.org/dc/dcmitype/StillImage" />
        <dc:title></dc:title>
      </cc:Work>
    </rdf:RDF>
  </metadata>
  <g
     inkscape:label="Layer 1"
     inkscape:groupmode="layer"
     id="layer1">
    <g
       id="g1844"
       transform="translate(-60.734452,-3.3492443)">
      <g
         id="g1825"
         transform="translate(-135.77292,-111.18412)">
        <g
           id="g1742"
           style="fill:#ffccaa;fill-opacity:1;stroke:#000000;stroke-opacity:1"
           transform="matrix(1.4317169,0,0,1.3869411,-88.333474,-125.81326)">
          <path
             d="M 240.85846,284.36234 H 394.94504 V 208.10785 H 240.85846 Z"
             style="fill:#ffccaa;fill-opacity:1;fill-rule:evenodd;stroke:#000000;stroke-width:0.723672;stroke-linejoin:round;stroke-miterlimit:4;stroke-dasharray:none;stroke-opacity:1"
             id="path943" />
          <path
             d="m 240.85846,284.36234 v -76.25449 l -35.90581,40.40337 v 76.2545 z"
             style="fill:#ffccaa;fill-opacity:1;fill-rule:evenodd;stroke:#000000;stroke-width:0.723672;stroke-linejoin:round;stroke-miterlimit:4;stroke-dasharray:none;stroke-opacity:1"
             id="path945" />
          <path
             d="m 240.85846,284.36234 h 154.08658 l -35.90581,40.40338 H 204.95265 Z"
             style="fill:#ffccaa;fill-opacity:1;fill-rule:evenodd;stroke:#000000;stroke-width:0.723672;stroke-linejoin:round;stroke-miterlimit:4;stroke-dasharray:none;stroke-opacity:1"
             id="path947" />
          <path
             d="m 240.85846,208.10785 h 154.08658 l -35.90581,40.40337 H 204.95265 Z"
             style="fill:#ffccaa;fill-opacity:1;fill-rule:evenodd;stroke:#000000;stroke-width:0.723672;stroke-linejoin:round;stroke-miterlimit:4;stroke-dasharray:none;stroke-opacity:1"
             id="path949" />
          <path
             d="m 394.94504,284.36234 v -76.25449 l -35.90581,40.40337 v 76.2545 z"
             style="fill:#ffccaa;fill-opacity:1;fill-rule:evenodd;stroke:#000000;stroke-width:0.723672;stroke-linejoin:round;stroke-miterlimit:4;stroke-dasharray:none;stroke-opacity:1"
             id="path951" />
          <path
             d="m 204.95265,324.76572 h 154.08658 v -76.2545 H 204.95265 Z"
             style="fill:#ffccaa;fill-opacity:1;fill-rule:evenodd;stroke:#000000;stroke-width:0.723672;stroke-linejoin:round;stroke-miterlimit:4;stroke-dasharray:none;stroke-opacity:1"
             id="path953" />
        </g>
        <rect
           style="fill:#000000;fill-opacity:1;stroke:#000000;stroke-width:0.614157;stroke-miterlimit:4;stroke-dasharray:none;stroke-opacity:1"
           id="rect1768"
           width="97.341949"
           height="30.524569"
           x="266.70706"
           y="236.77287" />
        <path
           style="fill:#000000;fill-opacity:1;fill-rule:evenodd;stroke:#c0c0c0;stroke-width:2;stroke-linejoin:round;stroke-miterlimit:4;stroke-dasharray:none;stroke-dashoffset:20;stroke-opacity:1"
           id="path1770"
           sodipodi:type="arc"
           sodipodi:cx="285.97839"
           sodipodi:cy="291.59106"
           sodipodi:rx="17.639788"
           sodipodi:ry="16.83798"
           sodipodi:start="0"
           sodipodi:end="6.0782837"
           sodipodi:open="true"
           sodipodi:arc-type="arc"
           d="m 303.61818,291.59106 a 17.639788,16.83798 0 0 1 -16.73658,16.8159 17.639788,16.83798 0 0 1 -18.4505,-15.09385 17.639788,16.83798 0 0 1 14.84714,-18.36159 17.639788,16.83798 0 0 1 19.97093,13.21351" />
        <path
           style="fill:#000000;fill-opacity:1;fill-rule:evenodd;stroke:#c0c0c0;stroke-width:2;stroke-linejoin:round;stroke-miterlimit:4;stroke-dasharray:none;stroke-dashoffset:20;stroke-opacity:1"
           id="path1770-9"
           sodipodi:type="arc"
           sodipodi:cx="344.24362"
           sodipodi:cy="291.85904"
           sodipodi:rx="17.639788"
           sodipodi:ry="16.83798"
           sodipodi:start="0"
           sodipodi:end="6.0782837"
           sodipodi:open="true"
           sodipodi:arc-type="arc"
           d="m 361.88341,291.85904 a 17.639788,16.83798 0 0 1 -16.73658,16.81589 17.639788,16.83798 0 0 1 -18.4505,-15.09384 17.639788,16.83798 0 0 1 14.84713,-18.3616 17.639788,16.83798 0 0 1 19.97094,13.21351" />
      </g>
    </g>
    <g
       id="g1831"
       transform="matrix(1.3984162,0,0,1.3529209,-289.81037,-121.08715)">
      <path
         d="m 397.7962,207.49318 v -17.6899 l -7.13201,9.37297 v 17.68989 z"
         style="fill:#c0c0c0;fill-opacity:1;fill-rule:evenodd;stroke:#000000;stroke-width:0.155345;stroke-linejoin:round;stroke-miterlimit:4;stroke-dasharray:none;stroke-opacity:1"
         id="path951-4" />
      <path
         style="fill:#000000;fill-opacity:1;fill-rule:evenodd;stroke:none;stroke-width:0.304131"
         id="path1716"
         sodipodi:type="arc"
         sodipodi:cx="394.32117"
         sodipodi:cy="203.68283"
         sodipodi:rx="1.8224152"
         sodipodi:ry="5.3862057"
         sodipodi:start="0"
         sodipodi:end="6.0782837"
         sodipodi:open="true"
         sodipodi:arc-type="arc"
         d="m 396.14358,203.68283 a 1.8224152,5.3862057 0 0 1 -1.7291,5.37914 1.8224152,5.3862057 0 0 1 -1.90617,-4.82828 1.8224152,5.3862057 0 0 1 1.5339,-5.87359 1.8224152,5.3862057 0 0 1 2.06325,4.2268" />
      <path
         d="m 382.26201,224.19077 v -17.68989 l -7.13201,9.37296 v 17.68989 z"
         style="fill:#c0c0c0;fill-opacity:1;fill-rule:evenodd;stroke:#000000;stroke-width:0.155345;stroke-linejoin:round;stroke-miterlimit:4;stroke-dasharray:none;stroke-opacity:1"
         id="path951-4-0" />
      <path
         style="fill:#000000;fill-opacity:1;fill-rule:evenodd;stroke:none;stroke-width:0.304131;stroke-opacity:1"
         id="path1716-0"
         sodipodi:type="arc"
         sodipodi:cx="378.78693"
         sodipodi:cy="220.38043"
         sodipodi:rx="1.8224152"
         sodipodi:ry="5.3862057"
         sodipodi:start="0"
         sodipodi:end="6.0782837"
         sodipodi:open="true"
         sodipodi:arc-type="arc"
         d="m 380.60934,220.38043 a 1.8224152,5.3862057 0 0 1 -1.7291,5.37914 1.8224152,5.3862057 0 0 1 -1.90617,-4.82828 1.8224152,5.3862057 0 0 1 1.5339,-5.87359 1.8224152,5.3862057 0 0 1 2.06325,4.2268" />
    </g>
    <path
       id="rect1858"
       style="fill:#0000ff;fill-rule:evenodd;stroke:#000000;stroke-width:1.8957;stroke-miterlimit:4;stroke-dasharray:none;stroke-opacity:1;paint-order:markers fill stroke"
       d="m 125.48156,7.4865728 c -12.73043,0 -22.97907,5.6477592 -22.97907,12.6631592 v 29.60341 c 0,1.92296 0.77463,3.74183 2.15471,5.37114 v 26.73014 c 0,1.06974 1.56245,1.93107 3.50364,1.93107 h 57.62107 c 1.94118,0 3.50364,-0.86133 3.50364,-1.93107 v -26.73014 c 1.38008,-1.62931 2.15471,-3.44818 2.15471,-5.37114 v -29.60341 c 0,-7.0154 -10.2492,-12.6631592 -22.97963,-12.6631592 z" />
  </g>
</svg>
